<?xml version="1.0" encoding="UTF-8"?>
<svg width="50px" height="50px" viewBox="0 0 50 50" version="1.1" xmlns="http://www.w3.org/2000/svg" xmlns:xlink="http://www.w3.org/1999/xlink">
    <!-- Generator: Sketch 53 (72520) - https://sketchapp.com -->
    <title>send</title>
    <desc>Created with Sketch.</desc>
    <g id="Page-1" stroke="none" stroke-width="1" fill="none" fill-rule="evenodd">
        <g id="send" fill="#FFF" fill-rule="nonzero">
            <path d="M32.1352539,50 L26.953125,50 C25.0651367,50 23.5199219,48.5040039 23.4407227,46.6350586 L20.5206055,29.4793945 L3.36494141,26.559375 C1.49599609,26.4800781 2.84217094e-14,24.9348633 2.84217094e-14,23.046875 L2.84217094e-14,17.8647461 C2.84217094e-14,13.984082 2.63261719,10.6294922 6.40205078,9.70703125 L45.6676758,0.0974609375 C45.6731445,0.09609375 45.6786133,0.0948242188 45.684082,0.0935546875 C46.8754883,-0.184472656 48.1035156,0.166015625 48.96875,1.03125 C49.8338867,1.89648438 50.1844727,3.12441406 49.906543,4.31601563 C49.9052734,4.32148438 49.9040039,4.32695313 49.9026367,4.33242188 L40.2930664,43.5980469 C39.3705078,47.3674805 36.015918,50 32.1352539,50 Z M46.3994141,3.13554688 L7.14492188,12.7424805 C4.77802734,13.3216797 3.125,15.4280273 3.125,17.8647461 L3.125,23.046875 C3.125,23.2623047 3.30019531,23.4375 3.515625,23.4375 C3.60351563,23.4375 3.69121094,23.4449219 3.77783203,23.459668 L22.137207,26.584668 C22.7915039,26.6959961 23.3040039,27.2085938 23.415332,27.862793 L26.540332,46.222168 C26.5550781,46.3087891 26.5625,46.3964844 26.5625,46.484375 C26.5625,46.6998047 26.7376953,46.875 26.953125,46.875 L32.1352539,46.875 C34.5719727,46.875 36.6783203,45.2219727 37.2575195,42.8550781 L46.8645508,3.60058594 C46.9025391,3.42871094 46.828418,3.31025391 46.759082,3.24091797 C46.6897461,3.17167969 46.5711914,3.09755859 46.3994141,3.13554688 L46.3994141,3.13554688 Z" id="Shape"></path>
            <path d="M21.875,29.6875 C21.4750977,29.6875 21.075293,29.5349609 20.7702148,29.2297852 C20.1599609,28.6196289 20.1599609,27.6302734 20.7702148,27.0201172 L36.3952148,11.3951172 C37.0053711,10.7848633 37.9947266,10.7848633 38.6048828,11.3951172 C39.2151367,12.0052734 39.2151367,12.9946289 38.6048828,13.6047852 L22.9798828,29.2297852 C22.674707,29.5349609 22.2749023,29.6875 21.875,29.6875 Z" id="Path"></path>
        </g>
    </g>
</svg>
